<svg xmlns="http://www.w3.org/2000/svg" xmlns:xlink="http://www.w3.org/1999/xlink" viewBox="0 0 305.5 147.03"><defs><style>.cls-1,.cls-3,.cls-6,.cls-7,.cls-8,.cls-9{fill:none;}.cls-1,.cls-3{stroke:#4d4d4d;}.cls-1,.cls-3,.cls-6,.cls-7,.cls-8{stroke-miterlimit:10;}.cls-1{stroke-width:0.5px;}.cls-2{fill:#ebebec;}.cls-3{stroke-width:0.5px;}.cls-4{fill:url(#linear-gradient);}.cls-5{fill:url(#linear-gradient-2);}.cls-6{stroke-width:5px;stroke:url(#linear-gradient-3);}.cls-7,.cls-8{stroke-width:6px;}.cls-7{stroke:url(#linear-gradient-4);}.cls-8{stroke:url(#linear-gradient-5);}.cls-10{fill:url(#linear-gradient-6);}.cls-11{fill:url(#linear-gradient-7);}.cls-12{fill:url(#linear-gradient-8);}.cls-13{fill:url(#linear-gradient-9);}.cls-14{fill:url(#linear-gradient-10);}.cls-15{fill:url(#linear-gradient-11);}</style><linearGradient id="linear-gradient" x1="2.36" y1="-329.46" x2="14.2" y2="-329.46" gradientTransform="matrix(0.28, 0.82, -0.84, 0.29, -186.54, 138.88)" gradientUnits="userSpaceOnUse"><stop offset="0.23" stop-color="#024772"/><stop offset="1" stop-color="#49bb93"/></linearGradient><linearGradient id="linear-gradient-2" x1="110.27" y1="-413.46" x2="122.11" y2="-413.46" gradientTransform="matrix(-0.01, 0.86, -0.89, -0.01, -180.14, 16.61)" xlink:href="#linear-gradient"/><linearGradient id="linear-gradient-3" x1="34.31" y1="74.01" x2="16.37" y2="71.49" gradientTransform="translate(0.75 0.68) rotate(0.42)" gradientUnits="userSpaceOnUse"><stop offset="0" stop-color="#49bb93"/><stop offset="0.38" stop-color="#024772"/><stop offset="0.48" stop-color="#064d74"/><stop offset="0.6" stop-color="#105e79"/><stop offset="0.75" stop-color="#217a81"/><stop offset="0.91" stop-color="#39a18c"/><stop offset="1" stop-color="#49bb93"/></linearGradient><linearGradient id="linear-gradient-4" x1="59.53" y1="79.88" x2="43.6" y2="77.64" gradientTransform="translate(53.99 153.06) rotate(-179.58)" xlink:href="#linear-gradient"/><linearGradient id="linear-gradient-5" x1="245.75" y1="22.51" x2="229.82" y2="20.27" gradientTransform="translate(-186.29 50.81) rotate(0.42)" xlink:href="#linear-gradient"/><linearGradient id="linear-gradient-6" x1="3.13" y1="26.29" x2="3.73" y2="30.59" gradientTransform="matrix(1, 0, 0, 1, 0, 0)" xlink:href="#linear-gradient"/><linearGradient id="linear-gradient-7" x1="26.29" y1="15.27" x2="4.14" y2="12.15" gradientTransform="matrix(1, 0, 0, 1, 0, 0)" xlink:href="#linear-gradient"/><linearGradient id="linear-gradient-8" x1="29.39" y1="15.21" x2="50.98" y2="12.17" gradientTransform="matrix(1, 0, 0, 1, 0, 0)" xlink:href="#linear-gradient"/><linearGradient id="linear-gradient-9" x1="-259.45" y1="53.16" x2="-258.83" y2="57.53" gradientTransform="translate(-209.75 170.53) rotate(-179.02)" xlink:href="#linear-gradient"/><linearGradient id="linear-gradient-10" x1="27.25" y1="132.61" x2="49.29" y2="136.09" gradientTransform="matrix(1, 0, 0, 1, 0, 0)" xlink:href="#linear-gradient"/><linearGradient id="linear-gradient-11" x1="24.1" y1="132.65" x2="2.51" y2="135.3" gradientTransform="matrix(1, 0, 0, 1, 0, 0)" xlink:href="#linear-gradient"/></defs><title>Asset 3</title><g id="Layer_2" data-name="Layer 2"><g id="Layer_2-2" data-name="Layer 2"><path class="cls-1" d="M104.4,130.88a2.09,2.09,0,0,1,.35-1.14l3-5.58"/><path class="cls-1" d="M107.26,132.13l.93-3.53a8.3,8.3,0,0,1,2.1-4.32"/><path class="cls-1" d="M112,132.27l1.48-6.41"/><path class="cls-1" d="M120,133a5.27,5.27,0,0,1,.22-2.4"/><path class="cls-2" d="M172.11,129.36c-1.11.78-5.73-.11-7.08-.16-3.32-.13-6.63-.3-9.94-.49q-11.35-.66-17-.66-5.37,0-16,.23c-3.93.09-7.33.15-10.18.19a7.64,7.64,0,0,1-7.72-7.78q.12-7.66.52-19.49.59-17,.58-25.46c0-6-.2-45-.2-51a18.18,18.18,0,0,1,.5-4.32c.27-1.4,4.12-2.63,5.19-3,3.52-1.15,7.42-1.08,10.39,1.37,5.72,4.72,4.59,12.71,3.82,19.22-2.26,19.09-1.74,38.34-1.74,57.53,0,11.42,3.06,19.64,4.76,21.34,9,9,22.32,4.43,32.58.62,2.74-1,10.11-5.09,11.84-2.07C173.64,117.69,174.46,127.67,172.11,129.36Z"/><path class="cls-2" d="M189.72,107.35c.39-5-.69-10-.9-15-.44-10.45.93-21.15,1.08-31.64,0-3.09.94-7.67.1-10.66-.68-2.44-2.32-1.72-4.76-1.72-1.82,0-5.25-.76-6.52.61s-.67,4.93-.72,6.56c-.16,4.78-.06,9.56,0,14.33.19,8.3.86,16.65.7,25-.06,3.08-.3,6.16-.33,9.24,0,2.19-.78,5.66-.17,7.63,1.77-.46,3.43-3.13,5.2-3.28,1.59-.13,3.48,3.18,4.82,2.75C189.14,110.86,189.57,109.37,189.72,107.35Z"/><path class="cls-2" d="M243.67,114.73a45.57,45.57,0,0,1-.31,4.63c-.25,2.42-.41,4-.46,4.71,0,.09,0,.18,0,.26a3,3,0,0,1-1.68,2.51q-6.28,3-19.8,3-18,0-17.95-16.35,0-6.56.3-19.71t.31-19.72c0-2.1.85-4.32-1.46-5.86-1-.66-2.64-.46-3.81-.48-3.36-.06-4-1.84-3.8-5.92.52-2.51.75-2.71,3.3-2.54,1.77.12,3.28,1.32,4.61-.19,1.84-2.13,1-7.43.93-10-.06-4.64-.46-9.27-.46-13.91q0-5.62,2.15-5.63c.46,0,9.41-5.53,12.64,1,1.17.16,2.14,3,2.14,4,0,2.26,1.24,4.84.91,9.36s-.5,7.92-.5,10.19c0,1.49-.05,6,2.9,5.55l17.69.16c.87,0,.65,1.51.48,2.88s-.61,1.73-1.46,5.12c-.49,2-3.71.39-11,.48-4.15.05-5.81.46-7.94,2.7-.28.3-.71,1.47-.92,4.4q-.37,5.47-.38,15.35v11.5c0,4.42.41,7.51,1.23,9.25q1.84,4,7.6,4a34.39,34.39,0,0,0,7-1.05,34.73,34.73,0,0,1,6.83-1C243.36,113.34,243.67,113.81,243.67,114.73Z"/><path class="cls-2" d="M303,85q.6,5.41-3.77,7.77-2.94,1.52-43.78,9.31,1.65,6.35,8.17,10.21a20.08,20.08,0,0,0,12.78,2.94,32.92,32.92,0,0,0,19.9-9.81c.69-.72,1.38-1.45,2.08-2.17a1.34,1.34,0,0,1,.76.06c.13.09,1.22,1.69,3.25,4.79a45.56,45.56,0,0,1,3.1,5c0,.3-.29.9-1,1.82q-9.23,12.61-25.68,14.47t-27.59-7.16q-11-9-12.89-26A39.88,39.88,0,0,1,244.89,69q8.63-12.77,23.08-14.4a29,29,0,0,1,23.58,7.58Q301.43,71,303,85Zm-4.55-7.21a15.47,15.47,0,0,0-5-11.34,15.79,15.79,0,0,0-11.32-4.94q-7.07,0-12.55,5.71a18,18,0,0,0-5.49,12.81c0,1.08.92,1.62,2.77,1.62A192.1,192.1,0,0,0,294,79.36Q298.46,78.75,298.46,77.82Z"/><path class="cls-3" d="M104.4,96.35A8.11,8.11,0,0,1,107.21,94"/><path class="cls-3" d="M104.31,98.21a15.94,15.94,0,0,1,2.07-1.78"/><path class="cls-3" d="M104.64,104.13a2.14,2.14,0,0,1,1.56-3"/><path class="cls-3" d="M104.53,112.9c1.45-.35,1.23-3,2.67-3.35"/><path class="cls-3" d="M103.11,117.5A9.35,9.35,0,0,0,109,114"/><path class="cls-3" d="M103.81,122.43l6.21-6.72"/><path class="cls-2" d="M97.66,68.1c.31,4.64-.51,12-.6,13.22-.7,9.89.62,19.83.78,29.71q.15,9.8.15,14.63c0,.94-.3,1.42-.91,1.42H87.17c-.71,0-1.06-.92-1.06-2.76q0-4.65.17-14c.2-10.22.89-20.62.41-30.82-.07-1.45-.14-15.83-.33-15.83.61,0,4.77,3.44,5.41,3.44s3.77-2.86,4.42-2.88C97.09,64.25,97.5,65.85,97.66,68.1Z"/><path class="cls-4" d="M87.69,52.29l-.59-1.71c-.38-1.11.37-3.34,1.1-4.19,2.45-2.83,7.09-.21,7.84,2.81l0,.17a4.44,4.44,0,0,1-8.39,2.92Z"/><path class="cls-5" d="M180.16,123.36l0-1.81c0-1.17,1.49-3,2.47-3.56,3.27-1.82,6.73,2.23,6.41,5.32l0,.17a4.42,4.42,0,0,1-4.52,4.29A4.38,4.38,0,0,1,180.16,123.36Z"/><line class="cls-6" x1="25.56" y1="28.61" x2="25.56" y2="118.61"/><line class="cls-7" x1="3" y1="108.61" x2="3" y2="39.24"/><line class="cls-8" x1="51.34" y1="39.24" x2="51.34" y2="108.61"/><path class="cls-9" d="M3.08,21.84C3.08,9.77,19.73,0,40.32,0"/><path class="cls-10" d="M5.4,28.5c-.08.66-.6,1.95-1.66,2.09l-.27,0A1.89,1.89,0,0,1,1.56,29l-.06-.37A.86.86,0,0,1,1.71,28,16,16,0,0,0,3,26.47a.48.48,0,0,1,.74-.07C4.22,27,5.4,28.48,5.4,28.5Z"/><path class="cls-11" d="M2.39,26.43A26.32,26.32,0,0,1,4.44,16.6,25.31,25.31,0,0,1,28.08,1V2a24,24,0,0,0-17,7.34,24.14,24.14,0,0,0-5,7.88,24.44,24.44,0,0,0-1.69,9.17Z"/><path class="cls-12" d="M52.23,26.44c-.16-.2-.12-.4-.15-.61l0-.6L52,24c-.1-.8-.25-1.59-.37-2.39s-.41-1.56-.61-2.34-.55-1.51-.82-2.27a24.85,24.85,0,0,0-5.36-7.94A24.37,24.37,0,0,0,27.53,2V1a25,25,0,0,1,23,15.83c.26.78.56,1.54.79,2.32s.41,1.59.56,2.39.24,1.62.33,2.43l0,1.22,0,.61A1,1,0,0,1,52.23,26.44Z"/><path class="cls-13" d="M48.33,119.54c.09-.66.63-2,1.69-2.09h.28a1.91,1.91,0,0,1,1.88,1.63l0,.38a.84.84,0,0,1-.22.68,16,16,0,0,0-1.28,1.51.46.46,0,0,1-.73.06C49.48,121.14,48.33,119.57,48.33,119.54Z"/><path class="cls-14" d="M51.3,121.7a26.76,26.76,0,0,1-2.21,9.86,26,26,0,0,1-5.7,8.28A24.95,24.95,0,0,1,25.18,147l0-.94a23.66,23.66,0,0,0,17.15-7.26,24.61,24.61,0,0,0,5.15-7.91,25.2,25.2,0,0,0,1.81-9.23Z"/><path class="cls-15" d="M1.5,120.84a1.07,1.07,0,0,1,.13.62l0,.61.06,1.21c.08.81.22,1.61.33,2.42s.37,1.58.55,2.37.52,1.53.78,2.3a25,25,0,0,0,5.18,8.14A24.06,24.06,0,0,0,16.4,144a23.71,23.71,0,0,0,9.34,2v1a24.49,24.49,0,0,1-17.65-8.09A25.62,25.62,0,0,1,3,130.52c-.24-.78-.53-1.56-.74-2.35s-.37-1.61-.51-2.42-.21-1.63-.28-2.45l0-1.23v-.61A1,1,0,0,1,1.5,120.84Z"/></g></g></svg>